<?xml version="1.0" encoding="utf-8"?>
<!-- Generator: Adobe Illustrator 12.0.0, SVG Export Plug-In . SVG Version: 6.00 Build 51448)  -->
<!DOCTYPE svg PUBLIC "-//W3C//DTD SVG 1.1//EN" "http://www.w3.org/Graphics/SVG/1.1/DTD/svg11.dtd" [
	<!ENTITY ns_svg "http://www.w3.org/2000/svg">
	<!ENTITY ns_xlink "http://www.w3.org/1999/xlink">
]>
<svg  version="1.1" id="Layer_1" xmlns="&ns_svg;" xmlns:xlink="&ns_xlink;" width="auto" height="100%"
	 viewBox="0 0 520.087 414.358" overflow="visible" enable-background="new 0 0 520.087 414.358" xml:space="preserve">
<path fill-rule="evenodd" clip-rule="evenodd" d="M259.169,0.14c1.349,0,2.695,0,4.043,0c4.926,0.146,5.666,4.729,7.873,7.447
	c3.393,4.176,11.705,5.667,15.959,8.511c6.217,4.157,10.989,10.723,12.979,18.726c0.774,3.11,0.46,7.999,1.916,11.277
	c1.022,2.304,3.59,4.442,5.532,6.384c2.009,2.01,3.9,4.101,5.957,5.32c0.383-4.127,0.886-9.776-0.426-13.618
	c-0.959-2.814-2.886-5.511-3.829-8.937c-2.577-9.355,0.528-18.157,4.894-24.47c0.721-1.041,1.872-2.879,2.979-3.192
	c3.25-0.916,8.437,1.011,10,2.767c2.929,3.29,2.392,9.869,3.83,14.256c3.479-1.604,5.342-11.245,10.853-10.852
	c4.144,0.296,5.229,6.893,6.171,10.001c3.612,11.94,0.581,24.138-5.533,31.279c-1.259,1.471-2.925,2.944-3.191,4.682
	c-0.708,4.605,3.016,11.1,3.191,15.32c2.474-1.172,3.643-3.516,5.533-5.745c3.006-3.545,6.702-5.616,6.171-12.767
	c-0.217-2.907-1.485-6.028-1.49-9.363c-0.011-7.78,4.585-14.878,8.725-19.363c0.687-0.744,3.365-3.875,5.106-4.043
	c3.008-0.29,8.046,3.23,9.362,4.681c3.715,4.096,2.977,11.356,0.213,16.172c-1.085,1.891-3.748,4.38-3.83,6.17
	c-0.077,1.705,1.889,3.586,3.192,5.532c3.843,5.74,8.556,12.703,7.66,22.98c-0.612,7.013-4.683,10.845-7.66,16.171
	c-2.992,5.351-3.454,11.083-5.533,18.3c9.314-4.812,19.448-11.386,24.684-21.704c1.393-2.747,4.164-9.353,2.979-13.193
	c-1.113-3.605-4.978-5.664-7.447-9.362c-2.819-4.222-5.008-10.053-4.468-18.087c0.184-2.753,1.046-5.473,1.489-8.298
	c0.419-2.668,0.351-5.393,1.488-8.086c5.862,1.344,10.144,5.236,13.405,9.576c3.365,4.476,5.88,10.066,5.32,17.448
	c-0.215,2.834-1.398,5.748-2.341,8.724c-2.518,7.96-4.048,18.004-7.66,24.896c-5.325,10.16-14.291,15.705-22.342,21.278
	c6.316,6.287,13.988,8.437,18.725,15.958c3.516,5.584,5.201,12.383,4.894,21.278c-0.203,5.9,0.38,10.932,3.404,14.683
	c1.598-3.457,0.825-7.372,0.639-10.852c-0.603-11.261-3.146-21.047-3.191-32.556c-0.042-10.565,3.065-20.387,7.873-27.024
	c1.772-2.446,3.184-4.457,4.043-7.447c1.692-5.891,2.095-12.637,5.958-17.236c1.548-1.842,3.783-3.827,6.384-5.319
	c2.022-1.161,5.572-3.518,8.086-3.404c2.396,0.107,4.999,3.482,6.809,5.106c1.982,1.778,5.316,4.078,5.745,6.17
	c0.841,4.098-2.55,8.396-4.469,10.427c-2.657,2.811-5.435,4.392-9.149,5.532c3.579,5.735,8.913,10.496,8.937,20.001
	c0.012,4.337-1.149,7.5-2.553,10.427c-1.157,2.411-3.101,4.322-4.257,7.022c-1.837,4.291-1.001,10.067-1.914,15.532
	c3.257-0.956,5.931-2,8.724-3.404c2.08-1.046,5.975-2.635,7.022-4.893c0.928-2,0.474-4.994,0.638-7.448
	c0.64-9.551,5.977-16.079,13.406-20.001c1.624-0.858,4.979-3.913,7.234-3.83c3.152,0.116,8.076,7.462,8.511,10.426
	c1.138,7.745-2.396,14.676-6.809,17.874c-3.969,2.875-8.531,3.232-12.768,5.533c3.554,6.13,8.112,11.574,7.447,20.853
	c-0.607,8.49-5.404,13.812-9.149,20.213c-1.927,3.294-2.953,6.823-5.106,9.576c-2.284,2.921-5.426,4.518-7.022,7.66
	c12.251-0.6,22.024-5.556,28.514-13.405c1.813-2.194,5.092-6.1,5.106-8.937c0.01-1.873-1.502-3.624-2.34-5.533
	c-3.962-9.005,0.314-18.872,3.617-25.959c2.198-4.719,4.585-9.069,7.021-13.831c2.339,3.044,3.917,6.988,5.958,10.852
	c2.496,4.727,7.39,10.046,5.319,17.023c-1.486,5.009-5.213,8.736-8.298,12.128c-3.038,3.34-5.979,6.944-8.299,11.916
	c-4.265,9.138-10.513,16.253-20.215,20.427c-14.705,6.326-35.851,4.669-54.686,6.171c-5.818,0.463-11.812,0.938-16.597,3.617
	c4.517,2.036,9.251,2.577,14.469,2.979c4.97,0.383,10.566,0.044,15.959,1.277c3.975,0.909,8.03,3.562,10.852,6.384
	c2.455,2.455,5.515,8.414,8.725,8.511c3.465,0.104,5.913-5.126,8.086-7.659c4.992-5.824,10.677-10.411,17.235-14.258
	c3.29-1.929,7.229-2.922,10.426-5.319c3.308-2.479,4.371-8.486,6.597-12.341c4.548-7.879,12.277-13.062,26.385-11.491
	c1.383,1.982,2.143,4.708,2.98,7.448c0.751,2.462,2.165,5.751,1.702,8.511c-0.694,4.133-7.513,8.059-11.065,9.577
	c-2.751,1.173-5.248,1.762-8.299,1.914c-3.15,0.157-6.384-0.67-9.788-0.426c-9.743,0.698-18.104,8.759-23.832,14.044
	c-2.084,1.923-4.206,4.138-5.531,7.021c3.15,1.137,7.29,0.639,11.49,0.639c3.622,0,8.804,0.945,11.702-0.212
	c1.614-0.645,2.555-4.424,3.617-6.385c3.549-6.541,9.4-10.693,17.236-12.766c5.113-1.354,10.714-2.357,16.81-2.768
	c3.689,4.281,2.103,11.446,0.213,15.32c-4.177,8.562-12.155,14.212-24.896,13.618c-5.814-0.27-11.6-1.183-17.661-0.638
	c-12.608,1.135-24.767,0.26-33.62,4.894c-8.734,4.572-13.053,11.497-18.299,20.215c3.679-1.303,8.743-1.175,12.341-2.979
	c1.502-0.753,2.581-2.477,3.83-3.83c3.542-3.838,7.593-6.737,14.044-8.299c5.955-1.44,14.067-0.899,21.278-1.276
	c2.151-0.113,4.618-0.904,6.384,0.638c-1.886,6.177-5.123,10.252-8.725,14.47c-5.747,6.73-13.379,10.374-25.321,7.447
	c-3.207-0.785-5.838-3.313-9.575-3.405c-3.704-0.09-7.662,1.835-11.277,3.193c-10.45,3.924-19.099,9.172-27.236,15.531
	c8.402,5.066,18.825,6.025,28.727,3.405c6.711-1.774,13.3-4.579,20.214-6.383c2.672-0.698,5.794-0.919,8.085-2.129
	c2.277-1.201,3.999-3.142,5.959-4.681c1.925-1.512,3.849-3.115,5.957-4.682c4.146-3.079,9.128-5.923,11.916-9.149
	c2.629-3.041,4.002-6.427,6.597-9.149c2.575-2.702,5.047-4.962,8.937-6.596c7.347-3.086,18.288-2.043,27.449-0.64
	c2.709,8.937-1.18,13.831-5.533,17.449c-5.895,4.899-15.341,6.636-25.745,4.469c-2.563-0.534-4.774-1.77-7.66-1.064
	c-3.417,0.834-6.343,4.803-8.725,6.809c-3.074,2.59-5.242,4.897-8.725,6.809c1.698,1.264,4.241,1.991,6.81,2.767
	c2.319,0.701,5.138,2.098,7.446,1.915c2.8-0.221,5.378-2.651,8.087-4.256c6.007-3.559,15.228-3.983,23.405-1.276
	c1.734,0.574,4.437,1.676,5.958,2.341c1.492,0.652,4.355,1.634,4.896,3.191c0.989,2.858-0.897,7.716-1.278,10.64
	c-0.423,3.269-0.303,8.641-2.127,10.214c-2.173,1.872-9.255,1.627-13.193,1.276c-9.194-0.82-15.832-4.091-20.852-8.724
	c-2.512-2.318-4.496-6.162-7.873-7.873c-3.095-1.568-7.111-2.076-10.853-2.767c-4.223-0.779-7.963-1.113-11.915-0.214
	c-6.639,1.513-13.27,5.741-18.3,8.725c4.6,2.734,8.755,6.796,15.106,7.661c2.959,0.402,6.037-0.14,8.938,0
	c8.616,0.413,14.865,3.334,20.641,7.234c5.2,3.512,9.844,8.449,15.107,12.979c1.62,1.395,4.038,3.451,4.042,5.107
	c0.013,3.73-7.08,5.995-10,7.021c-20.521,7.212-39.091-4.976-44.046-19.788c-0.987-2.95-2.124-6.582-4.682-8.299
	c-2.305-1.547-5.838-2.487-9.149-4.042c-3.094-1.453-6.177-3.018-9.788-3.192c-5.441-0.263-10.427,0.203-15.533-0.851
	c-4.677-0.966-8.49-3.272-12.979-3.618c1.206,3.345,3.786,6.671,6.809,8.512c4.297,2.619,8.931,2.309,13.831,4.043
	c8.198,2.9,14.849,9.151,19.363,16.172c2.111,3.283,4.929,7.077,5.106,12.128c-2.958,2.278-7.376,2.284-11.064,2.341
	c-4.245,0.065-8.209-0.741-11.491-1.703c-5.329-1.561-12.935-4.538-16.596-10c-3.193-4.76-2.253-8.927-2.979-14.044
	c-0.796-5.606-4.949-7.608-8.937-11.064c-2.852-2.47-5.635-6.796-9.788-6.809c-2.265-0.007-5.005,1.185-7.447,1.915
	c-6.846,2.047-14.049,4.659-22.13,5.319c0.189,1.994,1.43,4.427,2.767,6.81c0.937,1.671,2.54,5.127,4.042,5.744
	c2.124,0.873,6.625,0.42,8.725,0.851c14.283,2.936,23.451,14.515,31.917,24.472c1.364,1.604,3.684,3.777,3.617,5.744
	c-0.104,3.08-5.028,5.501-8.724,6.384c-4.937,1.18-10.062-0.266-13.192-1.063c-7.574-1.933-15.605-5.148-19.789-10.427
	c-4.671-5.893-4.872-14.946-8.298-21.917c-1.506-3.062-3.563-6.427-5.533-9.574c-1.679-2.683-3.608-7.158-5.958-8.938
	c-3.102-2.348-9.026-3.585-14.043-4.469c-5.423-0.954-11.854-1.473-16.598,0.213c1.128,2.37,3.193,7.972,5.533,9.362
	c2.006,1.193,5.076,1.134,7.021,1.702c10.855,3.176,17.168,11.172,21.278,21.705c1.526,3.908,3.778,8.036,3.618,13.191
	c-4.696,1.501-10.432,0.937-15.107,0c-8.549-1.711-16.637-6.447-19.79-13.404c-1.806-3.986-1.318-8.399-1.275-14.47
	c0.033-4.744-2.017-8.202-4.682-11.277c-1.423-1.643-3.285-4.204-4.894-4.469c-3.193-0.523-6.704,2.032-7.873,4.043
	c-1.993,3.428-3.334,11.068-4.257,15.533c-1.214,5.881-1.552,12.271-1.915,17.874c-0.818,12.658-1.941,25.924,0.213,37.662
	c2.898,15.784,11.203,29.979,30.642,28.727c6.081-0.393,12.358-0.981,18.725-0.214c10.699,1.29,20.914,6.825,33.407,5.746
	c5.61-0.485,11.319-2.451,17.022-2.767c6.349-0.351,12.699,0.402,17.874,1.914c5.089,1.489,9.86,3.699,15.107,4.683
	c5.574,1.044,11.986,0.639,18.725,0.638c9.191,0,18.819,1.229,27.236,2.554c2.64,0.416,5.662,0.401,7.873,1.915
	c-20.479,0.39-41.908,0.212-63.196,0.212c-5.222,0-10.654,0.459-15.746-0.212c-2.546-0.335-4.673-0.883-7.021-0.852
	c-2.365,0.031-4.713,0.429-7.235,0.639c-10.212,0.851-21.037,1.026-31.065,0.425c-1.701-0.102-3.842-1.431-6.385-2.127
	c-1.729-0.474-5.328-1.37-6.809-0.639c-1.249,0.617-0.655,1.663-1.276,2.766c-39.656-0.452-80.357,0.604-120.01,0
	c-6.377-0.097-12.167-1.898-17.873-2.127c-3.319-0.134-6.423,0.004-9.576,0.425c-2.699,0.362-5.384,1.429-8.298,1.702
	c-6.674,0.628-13.719,0-20.427,0c-20.162,0.001-40.139,0.178-60.431-0.212c8.291-1.785,12.661-6.815,19.363-9.362
	c4.338-1.648,9.695-0.893,13.618,0.638c4.27,1.667,8.459,2.843,12.768,3.404c10.521,1.372,20.251-0.518,27.874-3.83
	c2.142-0.93,4.413-3.072,6.171-4.255c4.91-3.302,10.466-5.509,20.001-4.895c9.635,0.62,20.259,5.059,28.726,1.064
	c13.13-6.194,15.387-29.602,16.81-47.451c1.047-13.122,2.067-31.886-0.426-45.748c-0.5-2.784-0.911-11.295-4.042-11.917
	c-3.163-0.626-5.17,2.596-6.597,4.683c-1.735,2.537-3.16,4.928-4.255,7.021c-2.768,5.289-3.52,12.087-5.958,16.598
	c-4.039,7.471-11.129,11.225-21.491,12.341c-2.925,0.315-6.544,1.213-9.575-0.639c0.172-5.408,1.633-10.204,3.191-14.257
	c1.6-4.16,3.771-8.238,6.596-11.063c4.627-4.627,11.108-5.294,17.661-7.66c4.194-1.515,7.162-5.563,9.362-9.363
	c-5.004-2.07-10.375-0.819-15.107,0.214c-14.68,3.203-25.729,10.015-30.641,22.98c-3.262,8.609-5.76,17.266-12.341,23.405
	c-4.402,4.105-10.144,7.228-18.725,8.086c-2.416,0.241-6.066,0.811-7.873-0.426c-3.29-2.249-1.553-10.468-0.425-14.043
	c2.752-8.732,9.596-13.379,17.022-17.022c7.566-3.714,18.248-4.102,20.215-13.619c-4.925,0.359-8.953,1.986-14.47,2.554
	c-2.689,0.276-5.443,0.341-8.299,0c-2.386-0.284-4.847-1.127-7.447-1.063c-6.581,0.159-12.303,4.02-16.598,7.873
	c-4.486,4.024-7.033,9.683-9.788,14.682c-4.164,7.556-10.415,13.613-20.853,15.959c-2.841,0.639-8.762,1.858-10.639,0.213
	c-1.949-1.71-1.308-6.874-1.063-10.002c0.776-9.922,6.875-16.061,14.256-18.938c2.985-1.163,5.943-1.407,8.937-2.127
	c2.882-0.692,5.506-1.839,8.086-2.979c5.168-2.283,9.807-4.407,13.406-8.512c-17.278-8.021-41.125-2.532-52.132,7.873
	c-12.503,11.82-15.337,28.456-41.279,26.599c-3.253-0.233-11.378-2.137-11.917-5.32c-0.407-2.414,2.601-5.415,3.831-7.021
	c4.563-5.964,10.436-11.324,18.512-13.405c3.452-0.89,6.669-0.482,9.788-0.638c9.741-0.489,15.483-5.691,20.001-11.917
	c-6.417-0.084-16.415-0.531-22.98-2.128c-2.508-0.608-4.692-1.664-6.596-1.914c-5.258-0.692-11.448,0.677-11.703,5.319
	c-0.099,1.799,0.938,4.004,2.127,4.255c2.985,0.631,2.984-2.853,4.894-1.276c3.025,2.497-2.984,6.311-6.17,5.532
	c-5.358-1.308-6.816-9.255-3.192-14.043c1.978-2.613,4.796-3.096,6.81-4.894c-2.373-1.52-4.774-2.428-8.086-3.617
	c-2.077-0.748-7.056-2.886-8.937-1.278c-3.034,2.596,1.399,11.112,1.702,14.044c1.022,9.896-4.208,14.357-7.873,21.065
	c-0.987,1.807-1.753,4.054-3.618,4.256c-3.408,0.372-7.186-4.873-8.298-7.66c-1.022-2.559-1.362-5.549-1.915-8.937
	c-0.797-4.88-1.855-9.47-0.213-13.405c1.09-2.611,3.348-4.767,5.32-7.022c3.238-3.702,6.168-6.474,11.277-8.085
	c-1.099-1.899-3.501-2.224-5.32-3.192C9.59,266.697,3.465,263.722,0,258.884c0-0.709,0-1.418,0-2.127
	c0.597-1.436,1.379-1.823,2.553-2.341c4.748-2.091,10.087-3.393,15.321-5.106c5.827-1.909,11.771-2.204,17.874-0.639
	c5.042,1.294,9.334,4.438,14.682,5.958c5.633,1.601,11.222,1.991,17.874,2.767c-2.806-6.912-7.946-11.568-13.192-16.386
	c-1.71-1.568-3.495-4.053-5.746-4.255c-2.172-0.195-3.93,1.123-5.745,1.915c-8.664,3.78-23.149,5.6-32.557,1.277
	c-3.347-1.538-7.45-4.063-8.511-7.022c-0.508-1.416-0.758-4.479,0.213-6.383c1.512-2.965,7.313-3.951,10.426-4.682
	c3.878-0.911,7.78-1.753,11.278-2.34c8.253-1.386,16.709,0.347,21.491,4.468c1.61,1.388,3.05,4.207,4.894,5.532
	c2.255,1.621,4.896,2.224,7.022,3.617c4.3,2.82,7.947,6.801,11.064,10.639c1.462,1.8,2.802,4.249,5.32,5.533
	c-0.082-8.806,2.226-15.575,5.745-20.427c1.203-1.658,2.693-2.981,3.617-4.683c-5.404-3.589-12.708-4.43-20.001-5.957
	c-6.793-1.423-13.81-3.469-20.64-5.319c-6.372-1.727-14.133-2.686-20.427-5.533c-5.163-2.336-12.039-7.065-12.767-13.192
	c-0.428-3.6,1.05-5.031,1.916-8.299c0.533-2.015,0.799-4.845,2.127-5.532c1.681-0.868,5.58-0.224,7.021,0
	c11.296,1.759,16.956,8.674,21.066,17.023c1.107,2.25,3.393,8.766,5.107,10.214c1.401,1.183,4.688,1.885,6.809,2.553
	c2.592,0.815,5.038,1.612,7.234,1.489c0.183-1.553-1.191-2.801-1.915-3.83c-0.902-1.281-1.766-2.5-2.554-3.83
	c-1.59-2.686-2.523-5.68-4.255-8.298c-3.018-4.564-7.557-7.046-11.065-10.639c-4.734-4.851-8.396-11.935-7.66-21.492
	c0.419-5.445,2.54-10.344,3.831-15.32c0.388-1.496,1.301-4.026,1.063-5.319c-0.279-1.522-2.17-2.384-3.404-3.618
	c-1.239-1.238-2.528-2.655-2.341-4.894c0.218-2.604,3.284-3.64,5.107-4.469c6.183-2.815,13.001-6.022,22.129-5.319
	c3.919,0.302,7.374,1.652,10.001,2.979c4.656,2.352,7.201,6.308,13.192,6.597c6.456,0.311,12.03-0.443,17.448,0.851
	c10.058,2.404,15.587,9.635,19.363,18.087c1.942,4.345,2.816,8.84,5.746,12.979c8.486-1.292,13.641-6.146,23.406-5.107
	c6.228,0.663,10.118,5.077,15.959,7.448c5.345,2.17,10.604,3.29,15.958,4.468c-1.865-5.741-6.022-10.16-10.426-13.831
	c-4.727-3.938-10.196-5.869-17.023-7.659c-13.17-3.457-26.762-5.171-37.024-12.555c-9.162-6.593-13.975-19.04-31.066-17.874
	c-7.096,0.484-16.763,0.323-22.129-2.128c-2.617-1.194-4.718-2.922-7.021-5.319c-1.729-1.8-5.204-5.291-5.107-7.448
	c0.089-1.978,3.214-5,4.256-6.383c1.243-1.651,2.914-4.901,5.319-5.532c2.747-0.721,7.049,0.932,9.363,1.702
	c7.029,2.343,12.272,5.728,16.384,10.853c3.772,4.7,5.932,9.783,12.554,10.639c-0.82-4.436,1.093-10.385,0-15.108
	c-0.326-1.41-2.128-3.03-3.191-4.468c-4.101-5.546-8.074-12.07-7.234-22.343c0.766-9.378,4.713-17.699,12.341-20.427
	c3.086,4.787,6.163,9.583,9.149,14.47c6.874-5.104,14.395-11.117,25.96-12.128c-3.887-3.002-6.593-7.524-9.362-12.341
	c-0.785-1.366-2.523-3.001-2.128-5.32c0.322-1.891,3.384-3.029,5.106-4.043c1.777-1.046,3.967-2.682,5.746-3.404
	c6.588-2.675,13.834,2.034,17.874,5.32c3.93,3.196,5.495,7.555,8.086,11.277c1.684,2.418,5.147,4.981,7.66,6.809
	c0.766,0.557,2.072,2.007,2.979,1.915c1.011-0.103,2.711-2.771,3.192-3.404c1.085-1.431,1.888-2.633,3.191-3.404
	c5.063-2.995,11.444-0.491,11.704,4.681c0.122,2.447-2.453,9.891-5.958,7.447c-3.134-2.185,2.063-6.929,0.425-9.149
	c-2.059-2.792-6.652,1.62-7.234,3.618c-0.836,2.864,0.244,7.048,1.063,9.362c2.849,8.036,7.238,15.597,10.427,22.342
	c1.839-5.662,3.183-12.127,4.468-18.938c1.034-5.479,2.367-16.411-0.425-21.065c-1.12-1.867-3.64-2.659-5.958-3.405
	c-7.315-2.352-13.106-5.308-16.171-11.916c-1.442-3.108-2.999-9.099-2.766-12.979c0.407-6.815,6.886-5.766,11.703-3.617
	c6.454,2.879,11.238,6.206,14.256,12.128c4.291,8.42,2.411,20.593,5.533,29.578c1.719-1.881,3.644-4.567,5.532-7.448
	c1.102-1.68,4.811-6.704,4.682-8.937c-0.109-1.875-2.501-3.739-3.618-5.107c-1.415-1.732-2.979-3.616-3.83-5.106
	c-3.889-6.816-5.571-19.822,0.851-24.683c1.742-1.319,6.096-2.993,9.575-1.915c3.262,1.01,5.305,5.056,6.81,8.298
	c1.748,3.77,2.706,8.525,2.127,12.767c-0.833,6.113-5.337,11.329-7.66,17.022c-2.541,6.228-5.232,11.3-8.299,16.597
	c-2.995,5.173-6.864,10.521-7.873,17.023c-0.565,3.639-0.482,7.629-0.851,11.49c-0.338,3.529-1.312,7.159-0.425,10.852
	c1.452-1.655,2.073-3.844,2.979-5.745c0.969-2.036,2.047-3.979,2.979-5.958c3.949-8.385,4.795-19.066,10.852-24.47
	c3.759-3.356,6.939-3.642,11.916-5.745c3.099-1.311,4.703-3.593,8.299-4.682c2.04,3.061,2.774,6.885,2.766,11.491
	c-0.022,12.189-8.314,16.801-17.874,19.576c-2.605,0.756-6.598,0.446-9.149,1.915c-2.012,1.158-3.464,5.201-4.682,8.086
	c-1.287,3.049-2.572,7.289-2.766,10.001c-0.648,9.045,1.829,11.205,6.809,14.682c4.513,3.151,8.239,5.224,12.555,7.873
	c2.138,1.313,4.205,2.874,6.383,3.405c-0.226-3.406,2.143-7.615,0.639-11.278c-0.58-1.411-3.882-2.587-5.533-3.617
	c-5.292-3.304-8.443-7.7-9.788-14.682c-0.717-3.725-1.752-10.343,0.851-12.979c3.729,0.156,6.389,1.804,9.362,3.192
	c2.652,1.237,6.208,2.315,8.085,4.468c3.076,3.525,1.855,10.54,2.128,17.022c0.163,3.847-0.12,7.897,1.703,10.427
	c3.566-7.702,8.115-13.463,12.979-20.214c1.595-2.213,3.83-4.855,3.83-7.448c0-3.469-3.076-5.99-4.255-8.937
	c-1.684-4.208-1.222-10.941-0.213-15.958c0.515-2.557,1.166-8.838,2.979-9.149c1.349-0.232,3.868,2.838,4.894,4.043
	c4.127,4.845,7.832,12.457,5.533,20.427c-0.939,3.252-3.134,6.522-4.682,9.788c-1.592,3.359-3.134,6.71-4.682,9.788
	c-3.32,6.604-7.702,12.266-10.213,18.938c5.822-0.648,6.59-4.355,12.128-2.766c6.438,1.847,4.769,15.14-2.554,14.469
	c-1.43-0.13-3.7-1.302-3.191-3.618c0.373-1.699,4.83-1.121,4.894-3.83c0.061-2.53-2.748-2.505-4.894-1.489
	c-1.67,0.791-3.668,2.916-4.255,4.043c-3.153,6.05,1.231,10.593,3.83,14.044c1.748,2.32,3.115,4.574,5.107,6.809
	c3.419-7.849,7.381-15.509,10.852-23.618c3.457-8.073,7.281-16.353,8.086-26.598c1.266-16.099-4.785-29.917-11.49-39.791
	c-1.817-2.677-4.791-8.194-7.873-9.575c-2.369-1.062-5.206-0.554-7.66-0.639c-7.644-0.264-13.645-3.647-16.598-8.511
	c-3.112-5.13-2.473-13.864-2.127-21.279c0.117-2.517-0.62-5.492,1.064-7.235c4.599,2.063,8.14,4.663,11.703,7.022
	c5.737,3.799,12.011,8.083,14.257,15.108c0.893,2.794,0.194,5.672,1.49,9.149c1.046,2.811,3.707,5.485,5.744,7.235
	c0.555,0.476,1.445,1.5,2.128,1.064c0.518-4.302,2.789-10.059,1.489-15.958c-0.438-1.985-3.113-3.604-4.895-5.533
	c-4.996-5.414-10.213-12.404-10.213-21.278C248.318,4.683,250.928-0.971,259.169,0.14z M267.255,39.931
	c-0.201,3.642,0.384,7.559,0,11.49c-0.219,2.244-1.333,4.229-1.277,6.17c0.128,4.319,4.279,8.561,6.385,12.342
	c2.143,3.848,4.12,8.134,5.318,12.129c3.064,10.199,1.455,19.652,2.555,32.343c2.91-1.965,4.672-5.996,6.383-10.001
	c1.674-3.915,3.624-8.804,3.404-13.405c-0.318-6.7-5.795-8.821-8.937-12.341c-4.988-5.59-8.966-14.545-9.362-25.109
	c-0.141-3.755-0.056-9.441,1.915-9.788c1.569-0.276,5.786,3.715,6.809,4.469c6.638,4.887,14.623,10.01,17.661,16.81
	c2.821,6.313,0.036,11.73-1.702,17.661c-1.281,4.374-1.208,9.176-1.915,13.618c-0.709,4.458-1.949,8.475-3.404,12.129
	c-1.51,3.792-3.666,7.11-4.682,10.852c3.724-0.829,10.83-2.775,12.554-6.17c1.058-2.078,0.393-6.379,0.64-9.576
	c0.844-10.967,6.643-15.401,12.554-20.427c1.864-1.585,5.27-3.67,5.319-5.745c0.033-1.398-2.343-4.146-3.191-5.32
	c-7.511-10.382-13.798-21.39-26.172-26.172c-2.05-0.792-4.366-1.238-6.383-2.341c-5.922-3.234-8.558-9.933-10.854-16.81
	C269.107,30.185,267.535,34.896,267.255,39.931z M360.667,60.784c-4.438,5.248-7.914,12.383-12.342,18.725
	c-4.464,6.394-10.085,12.401-11.277,19.363c3.817-4.979,12.969-9.263,18.512-4.043c3.475,3.272,3.387,10.264-1.914,11.917
	c-2.963,0.923-6.896-0.921-7.022-2.979c-0.297-4.872,4.899-0.041,6.81-2.34c1.723-2.075-1.46-4.288-3.617-4.468
	c-4.656-0.39-8.588,3.104-10.002,6.17c-2.67,5.795,0.834,16.112,0.639,23.193c6.064-3.102,13.922-3.536,19.364-7.874
	c2.394-1.908,4.369-4.439,5.744-7.873c1.134-2.828,2.989-7.584,2.341-11.49c-0.464-2.8-3.357-4.928-4.681-7.234
	c-1.281-2.233-2.47-5.112-2.767-8.299c-0.592-6.359,1.391-11.304,2.554-15.958c0.84-3.362,1.585-6.7,2.553-10.427
	c-0.012-0.129-0.031-0.251-0.213-0.212C363.61,58.176,362.028,59.175,360.667,60.784z M194.058,113.554
	c-4.85-8.13-8.732-18.428-12.767-27.236c-2.12-4.627-4.297-9.691-7.448-12.768c-3.084-3.011-9.256-6.428-16.171-5.745
	c-4.859,0.48-2.198,3.796-0.851,5.533c3.718,4.793,5.724,11.645,3.192,18.512c-0.558,1.514-2.359,3.667-1.702,5.532
	c0.457,1.297,3.412,2.173,5.319,2.979c10.898,4.606,20.119,9.667,21.917,22.98c3.275,3.12,10.396,4.416,15.958,2.766
	C199.769,121.722,196.667,117.925,194.058,113.554z M125.542,79.934c-4.354-0.271-7.992-1.923-12.554-1.702
	c-1.084,2.623,1.531,3.364,2.979,4.042c12.332,5.782,25.679,8.944,26.598,25.534c0.258,4.654-0.23,10.719,1.489,13.831
	c0.54,0.977,1.679,2.486,2.341,2.128c0.92-5.912,3.39-12.994,4.043-18.938c0.165-1.506,0.073-3.442-0.213-4.468
	c-1.311-4.694-6.614-8.511-7.022-14.469c-0.212-3.104,0.987-6.295,1.702-9.362C138.814,78.008,132.553,80.369,125.542,79.934z
	 M326.409,137.811c3.53-14.771,4.803-39.073-4.042-48.939c-0.012-0.224-0.273-0.167-0.213,0.212
	c0.552,12.184-3.047,20.879-11.703,24.257c-3.213,1.254-6.477,1.894-9.575,3.404c-2.849,1.39-5.486,3.493-8.299,4.895
	c-5.196,2.589-10.097,3.731-14.896,7.66c-2.115,1.732-11.076,9.304-7.872,13.618c0.902,1.215,3.136,1.124,5.532,1.49
	c9.434,1.438,16.769,7.04,19.576,14.681c1.208,3.292,1.228,6.784,2.767,9.789c1.613,3.153,3.963,4.946,7.66,6.809
	c-0.596-5.376-0.735-10.622-1.489-15.959c-0.731-5.16-3.185-9.112-4.469-13.192c-4.775-15.179,5.682-25.966,16.384-29.577
	c2.426,2.74,2.597,6.759,2.979,10.001c0.998,8.476-0.35,16.292-3.191,22.129c-1.477,3.032-3.704,5.396-4.895,8.298
	c-2.08,5.076-1.302,10.209-0.426,15.959c0.974,6.38,2.439,10.796,7.234,13.193C320.294,171.181,322.549,153.968,326.409,137.811z
	 M105.328,99.51c-1.717,4.563,0.003,13.518,1.703,17.661c5.771,14.078,23.44,22.428,40.003,22.768
	c-3.516-6.76-4.701-16.128-12.128-18.725c-3.975-1.389-6.895-1.739-9.789-3.404c-8.675-4.993-12.048-12.792-14.682-24.896
	c-0.012-0.129-0.032-0.252-0.213-0.212C108.7,95.327,106.344,96.809,105.328,99.51z M410.247,101.425
	c-3.41,6.513-5.483,14.831-4.256,23.832c1.624,11.914,4.396,23.158,6.383,32.129c8.3-4.008,16.748-12.794,15.747-24.895
	c-0.525-6.329-5.19-8.923-7.661-13.405c-1.577-2.863-2.979-6.139-2.979-10.427c0-5.407,2.935-8.581,2.128-13.618
	C413.739,94.956,412.367,97.373,410.247,101.425z M197.675,168.239c-1.83-1.573-3.458-3.446-4.894-5.32
	c-4.724-6.164-5.953-13.904-4.255-23.619c0.515-2.95,1.425-6.583,0.212-8.511c-2.265-3.602-9.281-1.245-13.404-1.277
	c-10.687-0.082-15.108-6.591-18.513-13.831c-0.412-0.876-1.539-5.122-2.766-5.107c-0.3,0.056-0.243,0.467-0.426,0.638
	c-1.903,11.696-1.034,23.912,4.468,30.641c3.338,4.083,8.518,5.525,13.619,8.299c9.378,5.101,15.554,14.88,21.704,22.555
	c3.251,4.057,5.733,8.442,11.065,11.064C206.824,174.905,201.588,171.602,197.675,168.239z M356.625,126.321
	c-3.746,1.756-7.778,3.06-11.277,4.894c-4.904,2.571-7.13,7.736-8.938,13.619c-4.087,13.311-6.142,28.262-6.597,44.471
	c3.202-1.823,5.074-5.391,7.661-8.724c2.206-2.84,6.039-5.862,6.171-10.213c0.054-1.79-0.912-3.711-1.064-5.319
	c-1.088-11.483,5.239-18.924,10.64-24.683c1.529-1.631,4.561-5.74,6.597-5.32c1.801,0.373,2.627,4.654,3.191,7.234
	c0.689,3.152,1.355,6.938,1.488,8.937c0.865,12.891-7.716,15.653-13.617,21.492c-5.764,5.701-8.819,13.532-12.768,19.789
	c2.936-1.259,8.021-0.837,11.065-2.341c2.771-1.368,4.167-4.118,6.383-5.958c3.563-2.956,8.893-5.332,14.896-5.319
	c10.181,0.022,15.585,6.542,22.769,11.065c3.268-2.435,5.934-6.849,5.318-12.342c-0.375-3.349-2.301-10.064-3.83-12.128
	c-1.999-2.701-4.723-2.681-8.086-3.618c-7.296-2.032-13.503-6.67-15.32-14.256c-1.311-5.474-1.609-13.989-1.914-20.428
	c-0.094-1.984,0.723-4.709-1.064-6.383C364.181,122.293,360.483,124.512,356.625,126.321z M250.871,174.835
	c-2.162-6.608-4.675-13.002-7.66-18.512c-3.269-6.038-7.401-9.908-13.192-12.98c-5.634-2.989-10.792-7.195-16.597-9.575
	c-5.195-2.13-12.163-2.36-18.3-1.915c-0.391,1.09,0.928,2.034,1.49,2.554c0.829,0.767,1.933,1.488,2.765,2.127
	c5.437,4.177,10.428,9.41,11.065,18.3c0.39,5.434-1.65,11.015-1.277,16.597c0.213,3.167,1.802,6.12,2.128,9.149
	c0.234,2.168-0.309,4.244,0.213,5.958c0.771,2.529,4.319,3.988,7.234,5.319c15.219,6.95,25.385,17.422,32.343,31.492
	c2.142,4.33,4.08,8.789,6.384,12.768c0.656,1.135,1.191,2.795,2.553,3.404c0.932-4.5-0.084-9.676-0.426-14.682
	c-0.365-5.363,0.049-11.053-1.276-14.895c-1.181-3.426-5.168-6.286-7.66-8.725c-2.564-2.509-5.188-5.584-8.511-6.597
	c-1.751-0.532-4.143-0.301-5.745-0.425c-3.552-0.274-7.402-1.258-10.427-2.979c-5.01-2.851-6.556-9.259-8.298-15.32
	c-1.217-4.235-3.125-8.885-2.341-13.831c3.975,0.205,7.271,2.35,10.427,3.83c8.798,4.125,16.36,8.328,19.576,17.449
	c0.615,1.744,0.726,3.739,1.703,5.745c0.914,1.878,2.394,3.312,4.043,4.682c1.288,1.07,2.813,2.555,4.255,2.34
	C255.337,188.729,253.05,181.488,250.871,174.835z M110.435,151.43c-4.306-7.849-14.857-12.8-27.662-11.916
	c-1.822,0.125-4.485,0.213-6.383,0.851c-1.668,0.559-3.282,1.833-4.895,2.553c-1.793,0.8-3.629,1.518-5.533,2.127
	c-5.425,1.739-12.57,2.388-18.512,1.49c2.256,4.376,5.593,6.975,8.086,10.851c3.073,4.78,5.404,11.146,4.894,19.364
	c-0.427,6.862-5.923,17.667,0.425,21.065c2.273-2.561,3.172-5.104,5.32-7.235c5.296-5.254,13.242-5.106,22.98-5.106
	c9.228,0,18.818-0.685,26.172-1.915c-3.684-3.098-7.91-6.604-14.256-6.597c-2.256,0.004-4.576,0.639-6.597,0.639
	c-11.471,0-19.538-4.566-25.108-11.278c-2.999-3.612-6.493-8.988-5.532-15.533c16.455-0.242,27.726,3.473,35.322,11.704
	c2.529,2.74,3.995,6.321,7.022,8.937c3.862,3.338,9.071,4.499,13.83,6.809C116.938,169.153,114.496,158.831,110.435,151.43z
	 M449.399,140.791c-6.321,5.648-15.197,9.376-22.13,14.256c-2.247,1.581-4.992,3.141-5.745,5.532
	c8.218,0.225,14.784,5.315,13.618,13.406c-0.489,3.389-3.301,6.054-7.235,5.958c-2.78-0.068-7.539-2.208-6.809-5.532
	c0.899-4.09,5.3,0.755,7.234,0.425c2.684-0.457,2.061-4.893,0.852-6.597c-4.646-6.547-14.33,0.039-16.811,4.256
	c-2.399,4.079-3.261,9.097-5.319,13.618c-2.03,4.46-4.857,8.031-6.809,12.341c6.363-0.45,13.431,0.434,19.149,0.426
	c6.794-0.01,13.082-2.881,17.874-5.958c3.028-1.943,11.737-7.441,12.13-11.703c0.265-2.888-1.799-5.952-3.192-8.724
	c-1.385-2.754-2.89-5.704-3.192-8.937c-0.601-6.448,1.599-9.788,3.618-13.618c0.748-1.421,1.291-2.91,1.915-4.468
	c0.501-1.253,1.909-2.817,1.063-4.469C449.599,140.873,449.58,140.751,449.399,140.791z M298.959,215.689
	c1.821-1.856,3.678-3.893,5.533-5.957c2.744-3.055,9.384-8.622,9.362-13.832c-0.01-2.702-2.021-5.043-3.404-6.809
	c-3.183-4.065-6.303-7.154-9.789-10.639c-1.644-1.644-3.477-3.858-5.318-4.895c-2.82-1.585-7.451-1.37-10.852-2.127
	c-10.149-2.261-17.057-6.433-19.364-16.384c-0.272-0.012-0.294-0.273-0.638-0.213c-1.791,3.368-0.328,9.093,0.213,13.618
	c2.881,24.144,11.602,44.318,11.916,70.005c1.905-0.303,2.555-2.229,3.829-3.404c1.244-1.146,2.853-2.187,4.044-3.83
	c2.192-3.027,4.473-10.362,2.127-15.107c-0.998-2.019-4.132-3.206-5.744-4.894c-5.307-5.553-4.799-17.694-2.767-26.598
	c0.415-1.818,1.317-7.542,3.191-7.873c1.364-0.242,3.22,1.934,4.043,2.766c5.642,5.695,10.627,13.532,9.575,24.044
	c-0.597,5.971-3.453,11.137-1.914,17.235C295.651,220.288,297.106,217.581,298.959,215.689z M204.91,196.752
	c-4.8-2.672-10.158-4.846-13.618-8.937c-1.171-1.384-1.899-3.162-3.192-4.468c-3.232-3.268-8.049-5.039-13.193-6.81
	c-3.789-1.304-8.446-3.234-12.341-2.766c-2.371,0.285-4.525,2.024-6.809,2.766c-6.516,2.118-12.953,1.042-18.3-1.277
	c-2.693-1.167-5.622-3.188-8.937-3.829c-0.661-0.128-0.52,0.542-1.063,0.638c0.096,1.903,1.278,3.718,2.127,5.32
	c6.579,12.402,12.95,23.969,22.768,32.981c5.474,5.025,11.468,9.737,17.235,14.682c5.804,4.976,12.249,9.631,19.79,12.13
	c0.187-3.817-2.155-7.284-3.618-10.853c-1.508-3.679-2.501-7.888-4.255-10.853c-2.64-4.462-8.683-5.928-12.342-9.788
	c-4.991-5.266-5.12-12.124-5.745-21.916c9.324,6.032,21.737,6.44,23.193,18.938c0.441,3.789-0.766,7.914,0,12.128
	c0.761,4.186,2.996,9.089,4.894,13.405c1.917,4.357,3.655,9.149,6.596,11.915c5.491,5.164,14.665,5.978,22.768,8.938
	c-0.1-7.037,0.134-13.01,0-19.788c-0.239-12.09-0.863-20.221-9.788-23.833c-3.409-1.379-8.664-1.415-8.937,2.555
	c-0.404,5.883,7.526,1.291,8.512,4.681c0.639,2.198-1.733,3.929-4.256,4.043c-4.091,0.186-7.806-3.76-8.299-7.235
	c-0.929-6.556,4.486-9.155,10.853-9.787C208.229,198.109,206.303,197.527,204.91,196.752z M125.967,194.836
	c-4.852-2.845-14.342-5.031-21.491-4.255c-4.061,0.441-4.557,3.073-6.809,5.533c-6.205,6.778-17.328,13.688-30.428,10
	c3.897,4.197,10.241,8.118,18.299,8.086c15.066-0.061,24.135-10.46,38.514-11.49c2.627-0.188,5.193,0.57,7.447-0.639
	C130.253,199.2,128.535,196.342,125.967,194.836z M369.179,198.029c-6.024-0.355-11.286-2.565-16.385-3.405
	c-1.646-0.271-2.839-0.121-3.829,0c-8.038,0.986-16.409,5.167-21.492,9.789c-5.41,4.919-8.642,12.019-13.405,18.085
	c-9.355,11.915-22.163,21.51-27.449,35.322c10.986-3.794,18.533-6.647,25.108-13.83c4.696-5.13,8.806-10.952,10.64-18.512
	c0.573-2.366,0.871-5.106,2.127-7.661c2.822-5.74,8.515-7.93,14.683-10.001c3.532-1.186,7.131-2.947,11.064-2.979
	c-0.121,13.552-6.267,21.734-15.533,25.959c-3.704,1.689-7.425,2.46-10.214,5.106c-2.401,2.279-4.122,5.802-5.744,8.725
	c-0.489,0.882-1.615,1.722-1.277,2.767c14.65-3.793,24.457-11.902,33.407-20.853c8.003-8.003,14.794-17.726,25.534-22.129
	c3.3-1.353,6.514-2.016,8.724-4.47c0.839-0.93,2.167-2.363,1.702-3.404C380.775,197.093,375.236,198.386,369.179,198.029z
	 M227.465,228.669c0.599,7.441,0.689,16.383,3.617,21.492c1.794,3.129,4.376,3.194,7.66,4.468c2.475,0.96,4.21,3.439,7.235,3.617
	c-4.067-19.426-8.729-42.006-23.194-50.855c-0.129,0.012-0.252,0.032-0.212,0.214C224.861,212.519,226.811,220.547,227.465,228.669z
	 M125.116,214.2c-11.542,1.319-20.51,6.049-29.79,10.214c1.006,2.011,2.164,2.6,2.979,4.681c1.891,4.829-1.129,11.618-5.319,11.277
	c-1.14-0.092-2.31-1.266-2.341-2.127c-0.068-1.891,3.179-2.535,3.192-5.32c0.027-5.87-7.881-3.753-9.575-0.638
	c-1.11,2.039-1.461,5.2-1.915,7.66c-3.373,18.282,6.25,27.71,18.512,33.619c10.688,5.151,23.069,5.878,36.386,7.234
	c-0.406-2.206-1.406-5.26-2.34-8.085c-0.599-1.81-1.585-6.799-3.405-7.661c-3.074-1.455-8.937,0.199-12.128,0
	c-11.067-0.688-16.447-8.124-20.853-15.745c-0.544-0.941-1.961-2.963-1.703-4.255c0.443-2.221,5.66-3.135,8.298-3.618
	c3.759-0.688,7.02-1.22,10.639-1.489c-2.678-3.854-8.018-8.004-7.021-15.533c2.781-1.413,6.128-0.852,9.149-0.852
	c10.42,0,18.902,0.987,24.044,6.171c1.593,1.606,3.152,5.917,4.895,6.597c1.986,0.774,6.463-0.543,8.724-0.851
	c3.124-0.427,5.874-0.757,8.724-1.278C155.821,224.38,144.283,212.009,125.116,214.2z M400.671,227.181
	c-1.822-2.105-3.233-4.646-5.32-6.385c-2.918-2.432-9.432-3.896-14.469-3.403c-6.451,0.629-8.734,4.655-12.129,8.51
	c-3.172,3.604-6.653,7.243-9.788,10.64c-1.607,1.742-4.193,3.316-4.043,5.746c4.126-0.198,9.195,1.182,13.192,0.213
	c2.328-0.564,4.425-2.401,6.81-3.617c7.779-3.972,18.023-2.271,26.172,0.424c1.973,0.654,10.539,2.811,10.853,4.896
	c0.352,2.348-4.434,8.161-5.32,9.148c-8.992,10.021-28.094,7.178-36.599-0.212c-1.524-1.325-2.823-3.657-4.682-4.257
	c-1.828-0.589-4.951-0.113-7.66,0c-6.962,0.294-11.317-0.098-15.745,2.129c-4.176,2.1-7.612,4.943-11.703,6.809
	c-4.237,1.932-8.96,2.919-14.044,4.468c-7.973,2.431-15.826,6.604-21.064,11.491c-0.601,0.56-1.905,1.001-1.703,2.128
	c5.618-0.229,14.618,1.855,19.789-0.213c2.657-1.063,5.086-3.965,8.299-5.745c3.065-1.699,6.643-2.61,10-4.043
	c2.42-1.032,4.342-3.956,6.596-5.532c2.292-1.603,5.243-3.087,9.363-3.404c8.553-0.659,15.168,2.401,21.278,4.895
	c1.029,0.42,4.081,1.079,4.255,2.978c0.19,2.063-2.336,3.717-3.404,4.469c-1.604,1.131-3.45,2.254-4.894,2.979
	c-8.044,4.044-19.856,4.11-27.874,0.426c-1.562-0.717-2.928-1.927-4.257-1.915c-1.791,0.015-4.344,1.593-5.957,2.553
	c-1.896,1.129-3.813,2.587-4.469,4.256c9.934,2.424,16.791,8.363,28.726,8.299c8.775-0.048,16.42-3.999,23.406-7.234
	c14.616-6.77,28.199-12.748,37.663-23.832c3.566-4.178,7.106-8.507,10.426-12.554c1.096-1.335,2.666-2.871,2.767-4.683
	C412.996,237.473,406.088,233.439,400.671,227.181z M182.355,248.671c-2.14-1.691-4.474-4.049-6.81-5.318
	c-3.572-1.943-7.43-0.865-13.192-1.064c-3.356-0.116-6.78-0.84-9.362-0.638c-8.048,0.624-14.969,2.341-22.342,2.765
	c8.453,15.505,8.521,41.869,30.002,43.408c8.82,0.631,15.206-3.247,22.129-5.959c6.203-2.429,12.19-4.939,18.299-6.595
	c-1.154-2.421-2.242-5.207-4.894-6.171c-3.116-1.135-7.059,0.819-10.213,1.702c-2.922,0.816-6.266,1.501-9.788,1.489
	c-8.724-0.028-14.562-3.862-19.364-7.448c-0.777-0.58-4.698-2.466-4.468-4.68c0.168-1.627,3.793-2.533,5.745-3.405
	c7.578-3.386,15.893-8.785,25.747-6.384C184.105,249.495,182.939,249.133,182.355,248.671z M205.548,270.588
	c2.723,2.068,6.037,3.925,9.576,4.256c5.768,0.537,12.265-0.171,18.938-0.214c-4.454-3.844-10.29-7.17-16.81-10.213
	c-5.457-2.547-13.791-6.59-20.427-7.235c-0.129,0.014-0.252,0.032-0.212,0.214C197.622,264.132,201.031,267.155,205.548,270.588z
	 M84.9,274.63c-2.401-1.946-4.833-4.536-7.66-6.171c-2.933-1.693-7.265-2.138-11.065-2.978c-3.948-0.874-7.905-2.399-11.49-2.767
	c-4.55-0.466-6.649,1.219-9.15,2.767c-3.544,2.193-7.654,4.32-10.426,6.809c8.088,2.877,15.67,9.384,25.108,11.49
	c5.354,1.195,11.367,0.914,17.023,0.426c5.495-0.475,11.046-1.085,15.107-3.192C90.207,278.873,87.594,276.814,84.9,274.63z"/>
</svg>
